<?xml version="1.0" encoding="utf-8"?>
<!-- Generator: Adobe Illustrator 17.0.0, SVG Export Plug-In . SVG Version: 6.00 Build 0)  -->
<!DOCTYPE svg PUBLIC "-//W3C//DTD SVG 1.1//EN" "http://www.w3.org/Graphics/SVG/1.1/DTD/svg11.dtd">
<svg version="1.1" id="Layer_1" xmlns="http://www.w3.org/2000/svg" xmlns:xlink="http://www.w3.org/1999/xlink" x="0px" y="0px"
	 width="56.689px" height="56.689px" viewBox="0 0 56.689 56.689" enable-background="new 0 0 56.689 56.689" xml:space="preserve">
<g>
	<path fill="none" stroke="#269ccb" stroke-width="2" stroke-miterlimit="10" d="M53.084,15.108v-3.745
		c0-0.029-0.001-0.058-0.003-0.088c-0.1-1.296-0.98-2.193-2.244-2.283C50.81,8.991,50.784,8.99,50.756,8.99h-8.452V7.308
		c0-1.187-0.966-2.153-2.153-2.153H16.016c-1.187,0-2.153,0.966-2.153,2.153V8.99H6.089c-0.027,0-0.055,0.001-0.082,0.003
		c-1.264,0.09-2.145,0.986-2.245,2.283c-0.002,0.029-0.003,0.058-0.003,0.088v3.755c-0.057,0.927,0.618,11.599,11.004,13.233
		c1.632,4.558,4.368,7.115,9.042,8.487v6.166l-8.248,3.909c-0.031,0.015-0.061,0.031-0.09,0.048
		c-1.172,0.688-1.818,1.675-1.818,2.777v1.226c0,0.029,0.001,0.058,0.003,0.086c0.094,1.241,1.004,2.043,2.318,2.043h24.222
		c1.317,0,2.227-0.803,2.317-2.045c0.002-0.028,0.003-0.056,0.003-0.084v-1.226c0-1.102-0.645-2.089-1.817-2.777
		c-0.029-0.017-0.059-0.034-0.09-0.048l-8.081-3.829v-6.289c4.569-1.398,7.216-3.897,8.844-8.362
		c3.483-0.408,7.201-2.72,9.066-4.932C53.34,20.061,53.128,15.698,53.084,15.108z"/>
</g>
<path fill="none" stroke="#269ccb" stroke-width="2" stroke-miterlimit="10" d="M7.428,12.845c0,0-0.321,3.578,0.583,5.917
	c1.458,3.771,5.583,4.75,5.583,4.75V12.845H7.428z"/>
<path fill="none" stroke="#269ccb" stroke-width="2" stroke-miterlimit="10" d="M49.317,12.845c0,0,0.321,3.578-0.583,5.917
	c-1.458,3.771-5.583,4.75-5.583,4.75V12.845H49.317z"/>
</svg>
