<?xml version="1.0" encoding="utf-8"?>
<!-- Generator: Adobe Illustrator 17.0.0, SVG Export Plug-In . SVG Version: 6.00 Build 0)  -->
<!DOCTYPE svg PUBLIC "-//W3C//DTD SVG 1.1//EN" "http://www.w3.org/Graphics/SVG/1.1/DTD/svg11.dtd">
<svg version="1.1" id="Layer_1" xmlns="http://www.w3.org/2000/svg" xmlns:xlink="http://www.w3.org/1999/xlink" x="0px" y="0px"
	 width="56.689px" height="56.689px" viewBox="0 0 56.689 56.689" enable-background="new 0 0 56.689 56.689" xml:space="preserve">
<g>
	<path fill="none" stroke="#269ccb" stroke-width="2" stroke-miterlimit="10" d="M42.542,52.721H23.615
		c-1.081,0-2.104-0.465-2.805-1.275l-8.224-9.029c-0.746-0.719-1.193-1.771-1.193-2.893s0.447-2.175,1.259-2.964l0.21-0.203
		c1.604-1.555,4.374-1.557,5.975-0.001l1.743,1.691V18.725c0-2.298,1.904-4.169,4.245-4.169h0.301c2.341,0,4.245,1.87,4.245,4.169
		v6.981c0.346-0.087,0.708-0.135,1.081-0.135h0.3c1.944,0,3.586,1.288,4.089,3.039c0.391-0.116,0.808-0.177,1.239-0.177h0.3
		c1.913,0,3.536,1.251,4.063,2.962c0.401-0.121,0.826-0.185,1.266-0.185h0.298c2.341,0,4.245,1.869,4.245,4.166v13.673
		c0,0.133-0.017,0.264-0.049,0.39C46.012,51.299,44.443,52.721,42.542,52.721z"/>
</g>
<g>
	<path fill="none" stroke="#269ccb" stroke-width="2" stroke-miterlimit="10" d="M16.632,15.535h-5.239"/>
</g>
<g>
	<path fill="none" stroke="#269ccb" stroke-width="2" stroke-miterlimit="10" d="M25.22,8.519V3.43"/>
</g>
<g>
	<path fill="none" stroke="#269ccb" stroke-width="2" stroke-miterlimit="10" d="M16.906,4.471"/>
	<path fill="none" stroke="#269ccb" stroke-width="2" stroke-miterlimit="10" d="M18.433,10.317l-3.708-3.598"/>
</g>
<g>
	<path fill="none" stroke="#269ccb" stroke-width="2" stroke-miterlimit="10" d="M34.449,15.535h5.242"/>
</g>
<g>
	<path fill="none" stroke="#269ccb" stroke-width="2" stroke-miterlimit="10" d="M31.496,10.317l3.705-3.597"/>
</g>
</svg>
