<?xml version="1.0" encoding="utf-8"?>
<!-- Generator: Adobe Illustrator 17.0.0, SVG Export Plug-In . SVG Version: 6.00 Build 0)  -->
<!DOCTYPE svg PUBLIC "-//W3C//DTD SVG 1.1//EN" "http://www.w3.org/Graphics/SVG/1.1/DTD/svg11.dtd">
<svg version="1.1" id="Layer_1" xmlns="http://www.w3.org/2000/svg" xmlns:xlink="http://www.w3.org/1999/xlink" x="0px" y="0px"
	 width="56.69px" height="56.69px" viewBox="0 0 56.69 56.69" enable-background="new 0 0 56.69 56.69" xml:space="preserve">
<path fill="none" stroke="#269ccb" stroke-width="2" stroke-miterlimit="10" d="M36.887,32.619l-0.126-0.057
	c-0.301-0.137-0.604-0.266-0.913-0.387c-0.337-0.135-0.679-0.26-1.026-0.377c-0.274-0.09-0.55-0.174-0.829-0.256
	c-0.425-0.123-0.854-0.234-1.296-0.332c-0.15-0.031-0.303-0.061-0.455-0.088l-0.104-0.02c-0.261-0.051-0.523-0.096-0.788-0.135
	l-0.076-0.012c-0.003,0-0.005-0.002-0.008-0.002l-0.076-0.01c-0.22-0.033-0.439-0.064-0.667-0.09l-0.776-0.064
	c-0.954-0.063-1.937-0.061-2.88,0.008l-0.275,0.023l-0.128,0.01l-0.321,0.029c-0.295,0.031-0.588,0.072-0.881,0.119l-0.086,0.012
	c-0.2,0.033-0.4,0.07-0.597,0.107c-0.219,0.039-0.435,0.082-0.651,0.129c-0.418,0.094-0.833,0.201-1.235,0.318
	c-0.32,0.092-0.636,0.193-0.933,0.295l-0.206,0.074c-0.63,0.223-1.256,0.479-1.862,0.76L19.53,32.75l-0.003,0.004
	C12.44,36.146,7.87,43.373,7.87,51.215c0,0.18,0.012,0.357,0.023,0.535l0.053,1.244h40.796l0.055-1.23
	c0.012-0.182,0.023-0.363,0.023-0.549C48.82,43.248,44.139,35.957,36.887,32.619z M23.856,27.144
	c0.136,0.057,0.277,0.107,0.418,0.157l0.295,0.107c0.114,0.044,0.228,0.086,0.344,0.123c1.083,0.341,2.216,0.516,3.368,0.525
	l0.092,0.002c0.395,0,0.791-0.021,1.171-0.06c0.131-0.013,0.258-0.034,0.386-0.055l0.284-0.043c0.16-0.021,0.32-0.045,0.487-0.077
	c0.114-0.024,0.225-0.054,0.336-0.084l0.311-0.079c0.154-0.037,0.307-0.075,0.459-0.122c0.094-0.03,0.187-0.065,0.279-0.099
	l0.25-0.09c0.178-0.062,0.358-0.125,0.538-0.201c0.07-0.03,0.138-0.063,0.205-0.095l0.081-0.04c0.246-0.11,0.492-0.223,0.735-0.353
	l0.158-0.094c0.273-0.154,0.544-0.314,0.82-0.502c0.143-0.096,0.279-0.204,0.413-0.312l0.465-0.362
	c2.675-2.214,4.212-5.463,4.212-8.833l0.005-0.096c0-6.395-5.203-11.596-11.597-11.596c-6.104,0-11.182,4.773-11.561,10.866
	l-0.01,0.151c-0.015,0.192-0.026,0.383-0.026,0.58C16.774,21.131,19.553,25.324,23.856,27.144z"/>
</svg>
